<svg height="2094" width="720" xmlns="http://www.w3.org/2000/svg">
<rect height="2094" fill="#555" width="720"></rect>
<text fill="#7f7" font-family="Courier New" font-size="12" xml:space="preserve">
<tspan x="10" y="26">14 megabytes installed</tspan>
<tspan x="10" y="42"></tspan>
<tspan x="10" y="58">node_modules</tspan>
<tspan x="10" y="74">└─┬ gulp-real-favicon@0.2.2 </tspan>
<tspan x="10" y="90">  ├─┬ gulp-util@3.0.8 </tspan>
<tspan x="10" y="106">  │ ├── array-differ@1.0.0 </tspan>
<tspan x="10" y="122">  │ ├── array-uniq@1.0.3 </tspan>
<tspan x="10" y="138">  │ ├── beeper@1.1.1 </tspan>
<tspan x="10" y="154">  │ ├─┬ chalk@1.1.3 </tspan>
<tspan x="10" y="170">  │ │ ├── ansi-styles@2.2.1 </tspan>
<tspan x="10" y="186">  │ │ ├── escape-string-regexp@1.0.5 </tspan>
<tspan x="10" y="202">  │ │ ├─┬ has-ansi@2.0.0 </tspan>
<tspan x="10" y="218">  │ │ │ └── ansi-regex@2.1.1 </tspan>
<tspan x="10" y="234">  │ │ ├── strip-ansi@3.0.1 </tspan>
<tspan x="10" y="250">  │ │ └── supports-color@2.0.0 </tspan>
<tspan x="10" y="266">  │ ├── dateformat@2.0.0 </tspan>
<tspan x="10" y="282">  │ ├─┬ fancy-log@1.3.0 </tspan>
<tspan x="10" y="298">  │ │ └── time-stamp@1.0.1 </tspan>
<tspan x="10" y="314">  │ ├─┬ gulplog@1.0.0 </tspan>
<tspan x="10" y="330">  │ │ └── glogg@1.0.0 </tspan>
<tspan x="10" y="346">  │ ├─┬ has-gulplog@0.1.0 </tspan>
<tspan x="10" y="362">  │ │ └── sparkles@1.0.0 </tspan>
<tspan x="10" y="378">  │ ├── lodash._reescape@3.0.0 </tspan>
<tspan x="10" y="394">  │ ├── lodash._reevaluate@3.0.0 </tspan>
<tspan x="10" y="410">  │ ├── lodash._reinterpolate@3.0.0 </tspan>
<tspan x="10" y="426">  │ ├─┬ lodash.template@3.6.2 </tspan>
<tspan x="10" y="442">  │ │ ├── lodash._basecopy@3.0.1 </tspan>
<tspan x="10" y="458">  │ │ ├── lodash._basetostring@3.0.1 </tspan>
<tspan x="10" y="474">  │ │ ├── lodash._basevalues@3.0.0 </tspan>
<tspan x="10" y="490">  │ │ ├── lodash._isiterateecall@3.0.9 </tspan>
<tspan x="10" y="506">  │ │ ├─┬ lodash.escape@3.2.0 </tspan>
<tspan x="10" y="522">  │ │ │ └── lodash._root@3.0.1 </tspan>
<tspan x="10" y="538">  │ │ ├─┬ lodash.keys@3.1.2 </tspan>
<tspan x="10" y="554">  │ │ │ ├── lodash._getnative@3.9.1 </tspan>
<tspan x="10" y="570">  │ │ │ ├── lodash.isarguments@3.1.0 </tspan>
<tspan x="10" y="586">  │ │ │ └── lodash.isarray@3.0.4 </tspan>
<tspan x="10" y="602">  │ │ ├── lodash.restparam@3.6.1 </tspan>
<tspan x="10" y="618">  │ │ └── lodash.templatesettings@3.1.1 </tspan>
<tspan x="10" y="634">  │ ├── minimist@1.2.0 </tspan>
<tspan x="10" y="650">  │ ├─┬ multipipe@0.1.2 </tspan>
<tspan x="10" y="666">  │ │ └─┬ duplexer2@0.0.2 </tspan>
<tspan x="10" y="682">  │ │   └── readable-stream@1.1.14 </tspan>
<tspan x="10" y="698">  │ ├── object-assign@3.0.0 </tspan>
<tspan x="10" y="714">  │ ├── replace-ext@0.0.1 </tspan>
<tspan x="10" y="730">  │ └─┬ vinyl@0.5.3 </tspan>
<tspan x="10" y="746">  │   ├── clone@1.0.2 </tspan>
<tspan x="10" y="762">  │   └── clone-stats@0.0.1 </tspan>
<tspan x="10" y="778">  ├─┬ rfg-api@0.3.0 </tspan>
<tspan x="10" y="794">  │ ├─┬ fstream@1.0.11 </tspan>
<tspan x="10" y="810">  │ │ ├── graceful-fs@4.1.11 </tspan>
<tspan x="10" y="826">  │ │ ├── inherits@2.0.3 </tspan>
<tspan x="10" y="842">  │ │ └─┬ rimraf@2.6.1 </tspan>
<tspan x="10" y="858">  │ │   └─┬ glob@7.1.1 </tspan>
<tspan x="10" y="874">  │ │     ├── fs.realpath@1.0.0 </tspan>
<tspan x="10" y="890">  │ │     ├─┬ inflight@1.0.6 </tspan>
<tspan x="10" y="906">  │ │     │ └── wrappy@1.0.2 </tspan>
<tspan x="10" y="922">  │ │     ├─┬ minimatch@3.0.3 </tspan>
<tspan x="10" y="938">  │ │     │ └─┬ brace-expansion@1.1.7 </tspan>
<tspan x="10" y="954">  │ │     │   ├── balanced-match@0.4.2 </tspan>
<tspan x="10" y="970">  │ │     │   └── concat-map@0.0.1 </tspan>
<tspan x="10" y="986">  │ │     ├── once@1.4.0 </tspan>
<tspan x="10" y="1002">  │ │     └── path-is-absolute@1.0.1 </tspan>
<tspan x="10" y="1018">  │ ├─┬ metaparser@1.0.7 </tspan>
<tspan x="10" y="1034">  │ │ ├─┬ async@2.3.0 </tspan>
<tspan x="10" y="1050">  │ │ │ └── lodash@4.17.4 </tspan>
<tspan x="10" y="1066">  │ │ ├─┬ cheerio@0.22.0 </tspan>
<tspan x="10" y="1082">  │ │ │ ├─┬ css-select@1.2.0 </tspan>
<tspan x="10" y="1098">  │ │ │ │ ├── boolbase@1.0.0 </tspan>
<tspan x="10" y="1114">  │ │ │ │ ├── css-what@2.1.0 </tspan>
<tspan x="10" y="1130">  │ │ │ │ ├── domutils@1.5.1 </tspan>
<tspan x="10" y="1146">  │ │ │ │ └── nth-check@1.0.1 </tspan>
<tspan x="10" y="1162">  │ │ │ ├─┬ dom-serializer@0.1.0 </tspan>
<tspan x="10" y="1178">  │ │ │ │ └── domelementtype@1.1.3 </tspan>
<tspan x="10" y="1194">  │ │ │ ├── entities@1.1.1 </tspan>
<tspan x="10" y="1210">  │ │ │ ├─┬ htmlparser2@3.9.2 </tspan>
<tspan x="10" y="1226">  │ │ │ │ ├── domelementtype@1.3.0 </tspan>
<tspan x="10" y="1242">  │ │ │ │ ├── domhandler@2.3.0 </tspan>
<tspan x="10" y="1258">  │ │ │ │ └─┬ readable-stream@2.2.9 </tspan>
<tspan x="10" y="1274">  │ │ │ │   ├── isarray@1.0.0 </tspan>
<tspan x="10" y="1290">  │ │ │ │   └── string_decoder@1.0.0 </tspan>
<tspan x="10" y="1306">  │ │ │ ├── lodash.assignin@4.2.0 </tspan>
<tspan x="10" y="1322">  │ │ │ ├── lodash.bind@4.2.1 </tspan>
<tspan x="10" y="1338">  │ │ │ ├── lodash.defaults@4.2.0 </tspan>
<tspan x="10" y="1354">  │ │ │ ├── lodash.filter@4.6.0 </tspan>
<tspan x="10" y="1370">  │ │ │ ├── lodash.flatten@4.4.0 </tspan>
<tspan x="10" y="1386">  │ │ │ ├── lodash.foreach@4.5.0 </tspan>
<tspan x="10" y="1402">  │ │ │ ├── lodash.map@4.6.0 </tspan>
<tspan x="10" y="1418">  │ │ │ ├── lodash.merge@4.6.0 </tspan>
<tspan x="10" y="1434">  │ │ │ ├── lodash.pick@4.4.0 </tspan>
<tspan x="10" y="1450">  │ │ │ ├── lodash.reduce@4.6.0 </tspan>
<tspan x="10" y="1466">  │ │ │ ├── lodash.reject@4.6.0 </tspan>
<tspan x="10" y="1482">  │ │ │ └── lodash.some@4.6.0 </tspan>
<tspan x="10" y="1498">  │ │ └── underscore@1.8.3 </tspan>
<tspan x="10" y="1514">  │ ├─┬ mkdirp@0.5.1 </tspan>
<tspan x="10" y="1530">  │ │ └── minimist@0.0.8 </tspan>
<tspan x="10" y="1546">  │ ├─┬ node-rest-client@1.8.0 </tspan>
<tspan x="10" y="1562">  │ │ ├─┬ debug@2.2.0 </tspan>
<tspan x="10" y="1578">  │ │ │ └── ms@0.7.1 </tspan>
<tspan x="10" y="1594">  │ │ └─┬ xml2js@0.4.17 </tspan>
<tspan x="10" y="1610">  │ │   ├── sax@1.2.2 </tspan>
<tspan x="10" y="1626">  │ │   └── xmlbuilder@4.2.1 </tspan>
<tspan x="10" y="1642">  │ └─┬ unzip2@0.2.5 </tspan>
<tspan x="10" y="1658">  │   ├─┬ binary@0.3.0 </tspan>
<tspan x="10" y="1674">  │   │ ├── buffers@0.1.1 </tspan>
<tspan x="10" y="1690">  │   │ └─┬ chainsaw@0.1.0 </tspan>
<tspan x="10" y="1706">  │   │   └── traverse@0.3.9 </tspan>
<tspan x="10" y="1722">  │   ├─┬ fstream@0.1.31 </tspan>
<tspan x="10" y="1738">  │   │ └─┬ graceful-fs@3.0.11 </tspan>
<tspan x="10" y="1754">  │   │   └── natives@1.1.0 </tspan>
<tspan x="10" y="1770">  │   ├─┬ match-stream@0.0.2 </tspan>
<tspan x="10" y="1786">  │   │ └── readable-stream@1.0.34 </tspan>
<tspan x="10" y="1802">  │   ├─┬ pullstream@0.4.1 </tspan>
<tspan x="10" y="1818">  │   │ ├── over@0.0.5 </tspan>
<tspan x="10" y="1834">  │   │ ├── readable-stream@1.0.34 </tspan>
<tspan x="10" y="1850">  │   │ └─┬ slice-stream@1.0.0 </tspan>
<tspan x="10" y="1866">  │   │   └── readable-stream@1.0.34 </tspan>
<tspan x="10" y="1882">  │   ├─┬ readable-stream@1.0.34 </tspan>
<tspan x="10" y="1898">  │   │ ├── isarray@0.0.1 </tspan>
<tspan x="10" y="1914">  │   │ └── string_decoder@0.10.31 </tspan>
<tspan x="10" y="1930">  │   └── setimmediate@1.0.5 </tspan>
<tspan x="10" y="1946">  └─┬ through2@2.0.3 </tspan>
<tspan x="10" y="1962">    ├─┬ readable-stream@2.2.9 </tspan>
<tspan x="10" y="1978">    │ ├── buffer-shims@1.0.0 </tspan>
<tspan x="10" y="1994">    │ ├── core-util-is@1.0.2 </tspan>
<tspan x="10" y="2010">    │ ├── isarray@1.0.0 </tspan>
<tspan x="10" y="2026">    │ ├── process-nextick-args@1.0.7 </tspan>
<tspan x="10" y="2042">    │ ├── string_decoder@1.0.0 </tspan>
<tspan x="10" y="2058">    │ └── util-deprecate@1.0.2 </tspan>
<tspan x="10" y="2074">    └── xtend@4.0.1</tspan>
</text>
</svg>
